<?xml version="1.0" standalone="no"?>
<!DOCTYPE svg PUBLIC "-//W3C//DTD SVG 20010904//EN"
 "http://www.w3.org/TR/2001/REC-SVG-20010904/DTD/svg10.dtd">
<svg version="1.0" xmlns="http://www.w3.org/2000/svg"
 width="1254.000000pt" height="1254.000000pt" viewBox="0 0 1254.000000 1254.000000"
 preserveAspectRatio="xMidYMid meet">

<g transform="translate(0.000000,1254.000000) scale(0.100000,-0.100000)"
fill="#000000" stroke="none">
<path d="M5900 12533 c-683 -51 -1306 -189 -1887 -419 -1858 -734 -3266 -2338
-3773 -4299 -126 -484 -179 -886 -187 -1409 -8 -477 14 -758 93 -1186 284
-1545 1096 -2859 2341 -3787 573 -427 1276 -790 1928 -994 585 -184 1120 -272
1725 -286 1666 -37 3333 641 4541 1847 478 477 829 966 1129 1571 301 609 480
1194 579 1894 47 330 56 469 56 845 -1 374 -9 508 -56 833 -125 881 -408 1673
-867 2427 -784 1289 -2042 2271 -3460 2701 -443 134 -895 220 -1337 254 -179
13 -686 19 -825 8z m935 -198 c720 -76 1374 -261 2000 -564 1439 -698 2533
-1920 3075 -3436 492 -1377 474 -2840 -53 -4211 -132 -343 -358 -780 -572
-1105 -128 -193 -395 -543 -449 -588 -18 -15 -19 -14 -46 249 -11 107 -31 292
-45 410 -13 118 -36 323 -50 455 -66 624 -70 644 -120 667 l-25 11 0 1457 0
1456 62 30 c77 36 185 139 221 209 50 99 57 144 57 349 0 164 -3 197 -19 231
-10 23 -63 83 -122 141 -235 228 -595 572 -642 614 l-50 46 26 39 c57 87 58
98 55 867 l-3 703 -28 57 c-16 32 -48 75 -73 97 -77 68 -96 71 -466 71 -195 1
-330 5 -333 11 -4 5 15 9 43 9 34 0 57 6 73 19 23 19 24 25 27 179 3 151 2
162 -17 181 l-21 21 -3100 0 c-3087 0 -3100 0 -3120 -20 -18 -18 -20 -33 -20
-175 0 -152 1 -156 25 -180 20 -21 34 -25 80 -25 30 0 55 -4 55 -9 0 -4 -156
-9 -347 -10 -339 -2 -349 -3 -398 -25 -69 -31 -106 -65 -140 -128 l-30 -53 -3
-739 c-3 -822 -5 -794 64 -874 l35 -41 -48 -28 c-26 -15 -109 -82 -184 -148
-74 -66 -244 -216 -377 -334 -312 -276 -295 -246 -290 -523 4 -182 6 -209 27
-260 48 -123 158 -235 278 -284 l58 -23 3 -1514 2 -1515 -30 -12 c-39 -16 -85
-69 -100 -116 -17 -51 -8 -168 18 -226 17 -40 18 -49 6 -59 -8 -6 -21 -36 -30
-66 -13 -45 -14 -63 -4 -103 15 -62 51 -117 101 -154 35 -27 39 -34 39 -73 l0
-44 -85 -39 c-64 -29 -88 -46 -95 -65 -6 -16 -10 -178 -10 -398 l-1 -372 -35
40 c-167 189 -407 512 -551 743 -810 1298 -1089 2871 -773 4350 182 847 522
1618 1028 2327 655 918 1552 1632 2597 2069 605 252 1245 399 1965 450 134 9
742 -3 885 -19z m3064 -1979 c17 -17 36 -46 41 -65 14 -49 13 -1264 0 -1313
-6 -20 -26 -50 -46 -67 l-35 -31 -3615 0 c-3244 0 -3618 2 -3645 15 -16 9 -39
30 -49 48 -19 31 -20 55 -20 692 0 630 1 661 19 689 10 15 32 37 47 47 28 18
116 19 3651 16 l3622 -2 30 -29z m-5835 -1703 c3 -3 2 -11 -3 -17 -5 -6 -73
-117 -151 -246 -78 -129 -174 -286 -212 -347 l-70 -113 -471 0 c-447 0 -469 1
-455 18 8 9 140 170 293 357 153 187 283 343 289 347 13 9 771 10 780 1z
m1711 -2 c4 -8 -75 -615 -91 -693 l-6 -28 -470 0 c-444 0 -470 1 -463 18 7 18
252 678 260 700 3 9 89 12 384 12 223 0 382 -4 386 -9z m1653 -4 c6 -7 67
-163 136 -347 68 -184 127 -343 131 -352 7 -17 -19 -18 -459 -18 l-466 0 -5
23 c-5 26 -74 567 -82 650 l-6 57 370 0 c288 0 373 -3 381 -13z m1812 -104
c52 -64 177 -216 278 -337 101 -122 192 -233 203 -248 l20 -28 -468 0 -468 0
-89 143 c-165 261 -356 575 -356 582 0 3 177 5 393 5 l392 0 95 -117z m-3562
-823 c4 -199 -24 -288 -127 -390 -223 -224 -636 -165 -775 109 -31 60 -46 163
-46 313 l0 97 93 3 c50 2 263 2 472 1 l380 -3 3 -130z m2030 -38 l-4 -159 -37
-76 c-97 -196 -309 -291 -538 -243 -141 30 -254 117 -316 244 l-38 76 -4 163
-3 163 463 2 c255 2 468 0 473 -4 5 -3 7 -78 4 -166z m-4090 11 c-4 -132 -8
-167 -26 -213 -79 -200 -294 -316 -525 -282 -162 24 -290 111 -360 246 -32 61
-32 62 -35 234 l-4 172 477 0 477 0 -4 -157z m6147 22 c0 -71 -3 -150 -7 -174
-13 -75 -54 -148 -117 -212 -229 -228 -650 -164 -785 121 -30 63 -31 69 -34
233 l-3 167 473 -2 473 -3 0 -130z m-7105 -365 c116 -180 368 -280 595 -236
149 29 307 132 371 243 14 23 27 43 29 43 2 0 17 -22 35 -50 210 -327 760
-327 971 1 l32 51 21 -34 c44 -71 82 -112 149 -159 224 -157 546 -136 739 49
32 30 70 74 85 98 l27 42 46 -67 c105 -148 268 -226 470 -225 202 2 355 76
458 223 l48 69 29 -45 c114 -181 355 -280 582 -239 97 17 171 49 247 106 49
37 117 115 143 164 9 16 13 13 36 -26 59 -102 198 -200 330 -235 75 -20 252
-22 317 -4 135 37 281 141 331 236 13 25 27 45 30 45 4 0 13 -15 20 -32 20
-49 136 -160 204 -195 147 -77 332 -91 492 -37 104 35 225 130 282 221 l28 45
26 -45 c35 -59 129 -145 202 -184 96 -50 173 -67 313 -66 l122 0 0 -1438 0
-1439 -816 0 c-800 0 -817 0 -849 -20 -30 -19 -45 -43 -59 -95 -4 -17 -116
-843 -116 -859 0 -3 -79 -6 -175 -6 l-175 0 0 1865 c0 1833 0 1864 -19 1875
-13 7 -628 10 -1915 10 l-1895 0 -15 -22 c-14 -20 -16 -215 -16 -1875 l0
-1853 -81 0 c-75 0 -83 2 -101 25 -13 17 -29 25 -51 25 -55 0 -58 8 -31 85 32
95 33 215 2 302 l-21 62 27 68 c22 56 25 73 17 95 -12 31 -76 68 -119 68 -37
0 -55 -21 -83 -94 -20 -52 -28 -60 -66 -77 -24 -10 -86 -48 -137 -83 -51 -36
-126 -81 -167 -101 l-74 -35 -17 40 c-41 96 -125 160 -212 160 l-46 0 0 36 c0
48 -32 98 -74 118 -82 39 -121 6 -114 -94 l4 -60 -28 0 c-43 0 -99 -27 -140
-68 l-38 -36 0 69 c0 89 -27 141 -86 170 -39 19 -43 24 -53 77 -20 98 -83 152
-172 147 -46 -3 -51 0 -87 39 -42 45 -111 81 -155 82 -33 0 -94 -24 -120 -48
-24 -22 -57 -85 -57 -110 0 -37 -21 -42 -87 -20 l-63 21 0 1496 0 1496 123 1
c104 1 133 5 197 28 123 43 247 140 296 231 10 19 19 35 20 35 1 0 16 -23 34
-50z m2400 -870 l0 -30 -65 0 -65 0 0 30 0 30 65 0 65 0 0 -30z m383 20 c-12
-5 -24 -18 -28 -29 -5 -16 -15 -21 -41 -21 -29 0 -34 3 -34 23 0 34 7 37 69
36 42 0 51 -2 34 -9z m-393 -136 c0 -15 18 -56 41 -91 30 -47 42 -80 46 -118
l6 -52 -54 -7 c-30 -3 -85 -6 -124 -7 -124 -1 -115 -5 -115 49 0 37 9 62 41
117 22 39 43 85 46 103 6 31 7 32 59 32 52 0 54 -1 54 -26z m340 1 c0 -15 -8
-29 -22 -36 -18 -10 -20 -9 -15 6 4 9 7 25 7 36 0 10 7 19 15 19 9 0 15 -9 15
-25z m395 0 c0 -13 -6 -30 -12 -37 -22 -21 -14 -26 24 -18 45 11 53 6 53 -28
1 -15 7 -38 15 -52 8 -14 14 -49 15 -77 l0 -53 -106 0 -107 0 5 49 c4 36 16
67 46 114 27 41 42 75 42 95 0 20 5 32 13 32 7 0 13 -11 12 -25z m433 -122
c-10 -2 -28 -2 -40 0 -13 2 -5 4 17 4 22 1 32 -1 23 -4z m807 -13 c3 -11 3
-24 0 -30 -4 -6 -86 -10 -216 -10 l-209 0 0 23 c0 13 3 27 7 30 3 4 98 7 209
7 194 0 203 -1 209 -20z m-565 -129 l0 -78 -42 -6 c-29 -4 -50 -1 -64 8 -12 8
-32 15 -45 16 -62 6 -82 -2 -125 -45 -41 -41 -44 -47 -44 -97 0 -69 15 -98 65
-126 49 -28 77 -28 134 -3 60 28 101 27 102 -2 1 -22 1 -22 9 2 5 16 8 -8 9
-73 l1 -97 -182 2 -183 3 -3 255 c-2 140 0 270 3 288 l6 32 179 0 180 0 0 -79z
m224 3 c7 -19 -2 -37 -15 -29 -12 8 -12 45 0 45 5 0 12 -7 15 -16z m794 -33
c6 -37 -17 -47 -89 -41 -51 4 -64 9 -67 23 -7 36 17 48 87 45 61 -3 66 -5 69
-27z m-2488 -23 l85 -3 -3 -95 c-2 -52 -5 -97 -8 -99 -2 -2 -40 -5 -84 -5 -44
-1 -80 -4 -80 -8 0 -5 8 -8 18 -9 118 -4 157 -8 160 -17 2 -8 11 -8 29 -1 14
5 27 8 29 6 10 -9 8 -197 -2 -207 -7 -7 -58 -10 -144 -8 -133 3 -134 3 -140
28 -3 14 -4 116 -2 228 3 166 7 202 18 198 7 -3 16 0 20 6 5 7 8 7 13 0 4 -6
45 -12 91 -14z m560 -98 l0 -100 -145 0 -145 0 0 100 0 100 145 0 145 0 0
-100z m174 -67 c6 -149 5 -163 -10 -163 -15 0 -16 10 -10 92 3 50 6 125 6 166
0 124 7 77 14 -95z m1172 132 c-3 -9 -6 -20 -6 -25 0 -14 -65 -31 -103 -27
-31 4 -34 1 -34 -20 0 -18 4 -23 15 -18 13 5 13 3 -1 -13 -18 -20 -14 -52 8
-52 28 0 132 93 148 132 4 10 8 10 16 -2 6 -9 11 -56 10 -110 -1 -91 -3 -95
-31 -122 -17 -15 -40 -28 -52 -29 -11 0 -15 -3 -8 -6 31 -12 -2 -52 -52 -60
-18 -3 -43 0 -56 7 l-22 12 22 23 22 23 -46 21 -46 20 0 99 c0 55 3 112 6 128
l6 29 105 3 c96 3 105 2 99 -13z m-279 -47 c-3 -8 -6 -5 -6 6 -1 11 2 17 5 13
3 -3 4 -12 1 -19z m-278 -2 c48 -25 46 -43 -7 -76 -96 -61 -152 -62 -152 -1 0
24 22 68 42 82 18 12 89 9 117 -5z m1118 -149 c-3 -7 3 -14 14 -15 44 -6 75
-5 92 2 16 8 18 2 15 -85 -3 -90 -4 -93 -28 -100 -23 -6 -22 -7 10 -11 19 -3
-63 -6 -182 -6 l-218 -2 1 108 c1 69 4 98 9 82 5 -17 8 -19 9 -7 1 9 9 17 19
18 9 0 33 6 52 13 48 19 214 21 207 3z m-1770 -89 c-2 -13 -4 -5 -4 17 -1 22
1 32 4 23 2 -10 2 -28 0 -40z m-10 -60 c-3 -7 -5 -2 -5 12 0 14 2 19 5 13 2
-7 2 -19 0 -25z m110 -65 c-20 -2 -52 -2 -70 0 -17 2 0 4 38 4 39 0 53 -2 32
-4z m940 0 c-20 -2 -52 -2 -70 0 -17 2 0 4 38 4 39 0 53 -2 32 -4z m668 -572
c-30 -4 -49 -11 -48 -17 3 -16 -40 -26 -72 -18 -24 6 -32 23 -18 37 3 4 47 6
97 5 74 -1 82 -2 41 -7z m108 2 c-7 -2 -19 -2 -25 0 -7 3 -2 5 12 5 14 0 19
-2 13 -5z m-2400 -10 c-29 -2 -78 -2 -110 0 -32 2 -8 3 52 3 61 0 87 -1 58 -3z
m-56 -27 c-24 -24 -67 -25 -67 -1 0 11 11 15 41 15 35 0 39 -2 26 -14z m2258
-63 c-16 -3 -35 -12 -42 -21 -11 -15 -11 -14 -6 6 4 18 12 22 42 21 33 -2 34
-2 6 -6z m0 -63 c-17 -33 -31 -44 -45 -35 -10 6 8 55 21 55 5 0 6 7 2 16 -5
14 -3 15 16 5 20 -11 20 -14 6 -41z m-1090 -11 c51 5 119 0 131 -10 15 -12 18
-57 6 -76 -5 -8 -19 -9 -52 -1 -103 22 -99 22 -140 -11 -21 -17 -49 -32 -62
-34 -21 -2 -23 3 -26 43 -1 25 2 51 6 58 12 18 83 43 102 35 8 -3 24 -5 35 -4z
m1225 -24 c0 -8 6 -16 13 -18 6 -3 -24 -5 -68 -5 -44 0 -72 2 -62 5 9 2 15 8
12 13 -7 11 10 21 49 30 33 7 56 -4 56 -25z m-1687 8 c-39 -5 -41 -17 -9 -64
16 -23 23 -44 19 -58 -3 -12 -1 -21 6 -21 6 0 11 9 11 19 0 11 7 27 16 36 9 9
13 23 9 33 -5 14 -4 15 7 4 19 -18 25 -208 7 -196 -7 4 -23 8 -36 9 -22 1 -23
-3 -23 -65 -1 -49 -5 -71 -19 -87 -18 -22 -26 -23 -158 -23 -95 0 -143 4 -151
12 -8 8 -12 60 -12 167 0 147 1 156 25 198 l26 43 157 -2 c86 0 142 -3 125 -5z
m1172 -15 l65 -13 0 -93 c0 -68 -4 -99 -16 -117 -16 -24 -20 -25 -130 -25
-150 0 -154 4 -154 141 0 106 4 114 59 103 16 -4 37 -1 48 5 24 14 50 14 128
-1z m517 -74 c21 -3 37 -9 37 -12 -4 -23 3 -105 8 -94 2 6 11 12 18 12 8 0 18
18 23 43 10 41 10 40 11 -29 1 -52 -3 -72 -11 -71 -49 1 -58 -3 -58 -32 0 -50
-12 -94 -21 -79 -9 13 -10 10 -13 -42 -1 -12 -21 -15 -106 -17 -64 -1 -97 1
-85 6 22 9 37 35 55 95 10 31 10 40 -1 47 -11 7 -15 -3 -17 -46 -2 -40 -7 -55
-17 -55 -10 0 -15 10 -15 27 0 38 -18 17 -23 -27 -2 -19 -5 35 -5 121 l-2 156
93 1 c50 1 109 -1 129 -4z m-2532 -11 c0 -5 -5 -15 -10 -23 -8 -12 -10 -11
-10 8 0 12 5 22 10 22 6 0 10 -3 10 -7z m1178 -113 c46 -57 218 -56 251 2 14
25 21 28 69 28 l53 0 -3 -112 -3 -113 -241 -3 c-188 -2 -243 0 -245 10 -2 7
-3 59 -1 114 l3 102 49 -2 c38 -1 52 -6 68 -26z m-273 -190 c-3 -5 -23 -9 -43
-9 l-37 2 40 7 c22 4 41 8 43 9 2 0 0 -3 -3 -9z m-3735 -444 c22 -15 38 -31
35 -36 -11 -18 -117 17 -132 44 -4 8 -19 16 -33 19 -14 3 1 5 32 3 42 -2 67
-10 98 -30z m-218 -97 c14 -9 24 -84 9 -75 -8 6 -10 0 -7 -21 4 -17 0 -13 -8
12 -13 37 -21 138 -9 105 3 -8 10 -18 15 -21z m527 -73 c9 -23 8 -24 -12 -17
-17 6 -22 17 -24 45 -1 35 0 36 13 18 7 -11 18 -31 23 -46z m-127 -23 c10 -9
18 -21 18 -27 0 -6 -7 0 -16 12 -9 14 -22 21 -31 18 -8 -3 -11 -1 -8 4 9 14
16 13 37 -7z m4536 10 c-10 -2 -18 -13 -18 -24 0 -11 -4 -17 -10 -14 -5 3 -10
15 -10 26 0 14 7 19 28 18 16 -1 20 -3 10 -6z m432 -2 c-25 -4 -35 -11 -34
-24 1 -13 -6 -17 -32 -17 -30 0 -34 3 -34 25 0 24 2 25 68 24 51 -1 59 -3 32
-8z m-392 -38 c-10 -2 -26 -2 -35 0 -10 3 -2 5 17 5 19 0 27 -2 18 -5z m-4947
-18 c5 4 6 -2 2 -11 -4 -11 -2 -15 4 -11 19 12 1 -42 -21 -60 l-21 -18 19 22
c10 12 16 30 13 40 -2 10 -7 25 -9 33 -3 8 -3 12 -1 7 3 -4 9 -5 14 -2z m3505
-46 c-4 -34 -3 -148 3 -253 16 -282 18 -377 9 -363 -4 6 -8 43 -8 80 l0 68
-27 -21 c-26 -20 -28 -20 -34 -3 -4 10 -6 -6 -6 -35 l1 -53 -176 -2 c-166 -2
-178 -3 -207 -24 -16 -13 -39 -23 -50 -23 -11 0 -21 -5 -23 -10 -14 -43 36
649 51 698 1 1 107 2 237 2 l237 0 -7 -61z m394 51 l25 -8 -25 -1 c-18 -1 -21
-4 -12 -10 11 -6 9 -9 -7 -14 -11 -2 -28 1 -38 9 -10 7 -29 14 -43 14 -23 1
-23 2 -5 10 25 11 72 11 105 0z m236 -45 c-3 -27 -7 -63 -7 -80 -2 -19 -4 -12
-8 20 l-6 50 -23 -35 c-12 -19 -22 -47 -22 -62 0 -41 -10 -60 -25 -48 -8 7 -7
-2 4 -24 9 -20 22 -35 30 -36 9 0 11 -7 7 -22 -3 -13 -6 -28 -6 -34 0 -6 -12
-9 -29 -6 -16 2 -39 -3 -54 -12 -22 -15 -223 -40 -261 -33 -6 1 -12 -12 -14
-28 -2 -24 3 -34 26 -47 38 -23 176 -26 259 -6 57 13 63 13 67 -1 4 -12 1
-147 -3 -183 -1 -4 -13 -3 -28 1 -16 4 -92 4 -170 1 -132 -6 -145 -9 -181 -33
-21 -15 -43 -27 -50 -27 -7 0 -12 -11 -12 -25 0 -23 3 -24 73 -28 l72 -3 -79
-2 -78 -2 6 43 c4 23 10 132 15 243 5 110 11 214 14 230 3 16 9 70 12 119 8
101 15 123 16 49 0 -27 3 -44 5 -37 10 23 84 -19 84 -47 0 -6 7 -13 15 -16 14
-6 13 -8 -2 -20 -14 -10 -8 -10 31 1 27 8 68 15 90 15 28 0 36 3 27 9 -18 11
-25 69 -11 86 6 7 26 16 45 19 35 7 69 45 43 47 -29 3 50 16 91 15 l43 0 -6
-51z m3268 33 c10 -14 16 -44 16 -75 l0 -53 193 -1 c325 -2 468 -11 480 -31 8
-12 -4 -66 -48 -220 -32 -111 -65 -211 -73 -220 -14 -16 -40 -18 -272 -18
-141 0 -259 -3 -262 -6 -3 -3 -3 -17 1 -32 l7 -27 235 -5 c129 -3 240 -9 247
-14 10 -6 12 -21 8 -55 -10 -68 -25 -100 -57 -116 -40 -21 -66 -18 -95 11 -21
20 -25 33 -22 65 l4 39 -108 0 -108 0 0 -29 c0 -17 -11 -42 -26 -60 -21 -25
-34 -31 -64 -31 -64 0 -97 61 -69 123 9 21 8 28 -9 45 -18 18 -20 35 -22 198
-1 99 -5 242 -9 319 l-6 140 -52 3 c-56 3 -78 20 -68 52 6 18 15 20 85 20 70
0 81 -2 94 -22z m-5275 -12 c9 -11 5 -30 -18 -87 -75 -188 -155 -294 -294
-393 -104 -74 -163 -96 -250 -96 l-76 0 6 70 c5 57 2 81 -16 131 -13 33 -21
62 -19 64 11 10 97 48 178 80 119 46 194 88 290 161 107 82 171 104 199 70z
m-1916 -60 l36 -55 -52 16 c-52 15 -69 23 -50 23 6 0 14 16 17 35 4 19 8 35
10 35 2 0 19 -24 39 -54z m1010 38 c9 -3 13 -13 10 -24 -5 -19 3 -25 62 -45
13 -5 16 -9 7 -12 -22 -9 -72 18 -78 42 -3 13 -14 25 -25 28 -24 7 -85 -10
-118 -31 -15 -10 -22 -12 -17 -4 21 35 117 63 159 46z m987 -162 c0 -98 -23
-175 -80 -273 -37 -62 -42 -67 -107 -92 -58 -23 -84 -27 -168 -27 l-100 0 68
41 c159 95 302 296 342 479 l8 35 18 -40 c13 -28 19 -65 19 -123z m-723 131
c10 -10 17 -17 14 -16 -2 1 -16 -5 -32 -14 -23 -14 -27 -22 -22 -44 3 -19 -2
-40 -16 -64 -12 -20 -19 -41 -16 -46 10 -16 -1 -10 -56 27 -30 20 -44 33 -31
30 15 -5 22 -4 20 4 -2 7 13 18 32 25 30 10 37 9 48 -4 12 -14 13 -12 8 16 -3
19 1 44 9 60 11 21 12 29 2 35 -8 5 -7 8 4 8 9 0 25 -8 36 -17z m3403 -32 c0
-6 -4 -13 -10 -16 -5 -3 -10 1 -10 9 0 9 5 16 10 16 6 0 10 -4 10 -9z m-760
-65 c0 -8 -7 -16 -15 -20 -12 -4 -13 -2 -2 14 14 24 17 25 17 6z m1262 -23
c38 -34 15 -73 -43 -73 -48 0 -62 17 -48 59 9 26 16 31 42 31 17 0 39 -7 49
-17z m-428 1 c19 -7 21 -45 4 -62 -17 -17 -53 -15 -68 3 -10 12 -10 21 -2 40
11 25 34 31 66 19z m-366 -111 l3 -101 -118 -4 c-65 -2 -122 -2 -128 -1 -9 3
-10 172 -1 198 2 6 52 10 122 10 l119 0 3 -102z m-458 45 c0 -40 -1 -41 -14
-22 -8 12 -12 31 -9 42 9 37 23 24 23 -20z m-3669 -80 c45 -57 107 -131 138
-166 82 -93 82 -92 18 -92 l-54 0 -101 170 c-56 94 -102 175 -102 180 0 26 27
1 101 -92z m-467 50 c4 4 6 0 4 -8 -1 -8 3 -15 10 -16 6 -1 17 -2 23 -3 5 0 8
-5 4 -10 -3 -6 3 -14 12 -20 10 -6 13 -11 6 -11 -16 0 -71 48 -84 74 -9 19 -9
19 4 4 8 -10 17 -14 21 -10z m880 -93 c-9 -14 -14 -32 -10 -40 3 -9 2 -13 -4
-10 -19 12 -2 75 21 75 5 0 2 -11 -7 -25z m2608 -267 c-6 -6 -8 -1 -7 14 3 32
7 36 12 14 3 -10 1 -22 -5 -28z m-3479 -45 c-18 -2 -48 -2 -65 0 -18 2 -4 4
32 4 36 0 50 -2 33 -4z m3045 -50 c-16 -2 -40 -2 -55 0 -16 2 -3 4 27 4 30 0
43 -2 28 -4z m305 0 c-46 -2 -120 -2 -165 0 -46 1 -9 3 82 3 91 0 128 -2 83
-3z m-3415 -296 c25 -4 24 -4 -5 -6 l-33 -1 2 63 2 62 3 -57 c4 -53 6 -57 31
-61z m7129 -182 c7 -62 8 -114 3 -119 -12 -12 -30 2 -30 25 0 27 -50 27 -57
-1 -4 -17 -43 -30 -43 -15 0 15 64 202 73 213 5 7 17 11 26 10 12 -3 19 -27
28 -113z m153 90 c8 -9 10 -27 6 -47 -9 -42 -9 -57 -1 -90 10 -40 -31 -78 -85
-78 -46 0 -44 -9 -29 130 l12 100 42 0 c26 0 48 -6 55 -15z m137 -70 c18 -121
17 -145 -6 -145 -13 0 -21 8 -23 23 -2 14 -10 22 -23 22 -11 0 -24 -10 -30
-22 -11 -26 -51 -33 -41 -8 3 8 17 54 32 102 30 98 40 115 63 111 12 -2 19
-24 28 -83z m161 45 c13 -22 12 -30 -3 -65 -10 -22 -18 -42 -17 -45 0 -3 3
-22 7 -42 7 -34 5 -38 -14 -38 -17 0 -22 8 -27 40 -4 22 -10 40 -14 40 -5 0
-11 -18 -15 -40 -5 -31 -11 -40 -27 -40 -17 0 -20 5 -15 28 3 16 9 65 13 108
4 43 11 82 16 85 21 13 83 -7 96 -31z m136 14 c21 -20 20 -63 0 -92 -13 -19
-14 -31 -6 -65 6 -22 9 -44 6 -49 -11 -18 -34 -6 -40 20 -12 54 -16 64 -24 56
-5 -5 -10 -22 -12 -39 -2 -20 -9 -31 -22 -33 -18 -4 -18 1 -12 69 14 151 14
149 57 149 21 0 45 -7 53 -16z m151 -4 c27 -30 17 -151 -15 -185 -36 -38 -75
-33 -100 14 -22 43 7 170 42 184 27 11 56 6 73 -13z m149 11 c10 -15 -5 -41
-24 -41 -15 0 -18 -13 -24 -90 -7 -80 -10 -90 -27 -90 -21 0 -23 20 -10 124 7
52 5 59 -11 64 -18 4 -24 23 -11 35 10 10 101 8 107 -2z m244 -35 c3 -15 -2
-16 -32 -10 -31 5 -36 4 -36 -13 0 -11 14 -29 30 -41 24 -18 30 -30 30 -59 0
-66 -52 -94 -101 -54 -20 16 -22 22 -11 33 10 10 16 10 32 0 28 -17 40 -15 40
9 0 12 -13 34 -30 49 -47 44 -37 103 20 123 19 6 54 -16 58 -37z m-128 14 c0
-16 -7 -20 -30 -20 -25 0 -30 -4 -30 -25 0 -20 5 -25 26 -25 36 0 29 -34 -9
-38 -21 -3 -27 -9 -27 -28 0 -19 6 -26 30 -30 29 -6 42 -33 18 -35 -21 -3 -82
2 -86 6 -2 2 -1 51 3 109 l7 106 49 0 c42 0 49 -3 49 -20z m-1840 -337 l65
-31 -1853 -4 c-1018 -1 -1852 -2 -1852 -1 0 6 51 29 110 50 l65 23 1700 -3
1700 -2 65 -32z m306 -395 c-4 -35 -9 -77 -12 -95 -5 -25 -1 -37 20 -57 24
-25 30 -26 136 -26 158 0 162 4 181 149 l12 91 103 0 104 0 0 -34 c0 -19 9
-44 19 -57 17 -22 28 -24 130 -27 l110 -4 31 31 c23 23 31 38 28 58 l-3 28
374 3 374 2 -7 -41 c-18 -113 -19 -158 -3 -183 16 -23 15 -25 -34 -66 -194
-164 -571 -409 -909 -590 -1061 -571 -2308 -818 -3465 -684 -909 104 -1754
400 -2565 897 -157 96 -374 244 -500 341 l-105 81 730 5 730 5 150 73 c82 40
157 80 167 89 10 9 18 29 18 45 l0 28 2096 0 2096 0 -6 -62z"/>
<path d="M7185 10151 c-59 -17 -86 -31 -131 -73 -97 -89 -127 -196 -127 -448
0 -299 44 -419 185 -495 43 -23 68 -30 134 -33 105 -6 177 16 239 70 101 89
135 201 136 448 1 237 -26 351 -106 438 -55 62 -131 95 -224 98 -42 2 -89 -1
-106 -5z m155 -216 c45 -41 55 -97 55 -310 0 -220 -11 -277 -60 -309 -35 -23
-97 -20 -129 5 -47 37 -58 104 -54 332 4 220 9 242 65 287 33 26 92 23 123 -5z"/>
<path d="M9205 10147 c-86 -29 -134 -67 -171 -137 -15 -28 -19 -57 -19 -140 0
-96 2 -109 27 -151 35 -59 84 -103 209 -185 78 -52 104 -75 116 -102 57 -136
-122 -197 -198 -67 -12 19 -27 35 -34 35 -27 0 -135 -75 -141 -97 -9 -32 33
-101 84 -140 62 -47 138 -67 237 -61 157 10 244 84 275 232 30 145 -35 274
-183 362 -153 92 -196 140 -182 205 17 75 139 78 173 5 7 -15 20 -26 32 -26
24 0 129 66 137 86 16 42 -48 128 -123 164 -56 27 -181 36 -239 17z"/>
<path d="M3277 10118 c-8 -13 -27 -75 -42 -138 -15 -63 -65 -269 -111 -458
-46 -188 -84 -353 -84 -365 0 -13 5 -28 12 -35 16 -16 159 -16 181 1 11 8 24
43 34 95 l16 83 121 -3 120 -3 18 -80 c11 -46 26 -85 35 -92 23 -18 164 -17
188 1 18 13 13 34 -104 501 -67 269 -127 495 -133 502 -7 9 -42 13 -124 13
-107 0 -114 -1 -127 -22z m167 -440 c20 -91 36 -171 36 -177 0 -7 -28 -11 -75
-11 -56 0 -75 3 -75 13 0 16 58 303 66 330 3 10 7 17 9 15 2 -2 19 -78 39
-170z"/>
<path d="M3902 10128 c-9 -9 -12 -135 -12 -505 l0 -492 22 -12 c32 -17 358 -6
423 15 89 28 155 92 176 171 7 22 11 73 11 113 -1 94 -33 166 -93 207 l-40 28
35 36 c48 50 66 98 66 179 0 93 -22 152 -75 201 -65 60 -115 71 -325 71 -124
0 -180 -4 -188 -12z m335 -193 c33 -23 47 -81 34 -133 -15 -55 -42 -72 -113
-72 l-58 0 0 110 0 110 58 0 c36 0 66 -6 79 -15z m1 -396 c42 -15 62 -49 62
-108 0 -95 -33 -126 -134 -126 l-61 0 -3 109 c-1 61 0 116 2 123 7 16 90 18
134 2z"/>
<path d="M4833 10128 c-6 -7 -63 -224 -127 -483 -64 -258 -119 -477 -122 -486
-2 -9 3 -24 11 -33 21 -20 162 -23 188 -3 9 6 24 48 34 92 l18 80 120 0 120 0
17 -80 c10 -49 23 -84 34 -92 11 -8 48 -13 95 -13 108 0 112 6 88 112 -50 228
-219 891 -230 904 -15 19 -232 20 -246 2z m161 -450 c20 -92 36 -172 36 -178
0 -6 -31 -10 -75 -10 -57 0 -75 3 -75 14 0 8 16 87 35 177 19 90 35 166 35
168 0 23 14 -31 44 -171z"/>
<path d="M5452 10128 c-9 -9 -12 -135 -12 -505 0 -566 -11 -513 105 -513 109
0 105 -8 105 196 l0 175 43 -3 42 -3 60 -168 c37 -103 68 -174 80 -183 25 -19
164 -19 190 0 20 15 17 27 -97 312 l-40 101 45 43 c63 58 82 111 82 230 -1
120 -22 186 -79 245 -69 71 -123 85 -334 85 -125 0 -182 -4 -190 -12z m328
-193 c57 -29 77 -157 35 -221 -18 -27 -76 -47 -125 -42 l-35 3 -3 124 c-1 69
0 131 2 138 7 18 90 17 126 -2z"/>
<path d="M6212 10128 c-9 -9 -12 -135 -12 -505 0 -568 -12 -513 113 -513 108
0 107 -2 107 208 l0 172 38 -6 c20 -3 38 -7 38 -7 1 -1 28 -76 60 -167 33 -91
67 -173 77 -183 15 -15 32 -17 104 -15 65 2 88 7 96 19 7 12 -10 65 -67 212
l-77 195 45 42 c64 59 81 110 81 240 0 88 -4 113 -24 158 -30 67 -97 127 -164
147 -65 19 -396 22 -415 3z m356 -211 c25 -25 27 -34 27 -107 0 -73 -2 -82
-27 -107 -22 -22 -39 -27 -88 -31 l-60 -4 0 142 0 142 60 -4 c49 -4 66 -9 88
-31z"/>
<path d="M7687 10133 c-12 -12 -8 -168 5 -181 7 -7 44 -12 95 -12 l83 0 0
-399 c0 -350 2 -402 16 -415 11 -12 36 -16 90 -16 125 0 114 -42 114 425 l0
405 84 0 c107 0 116 7 116 96 0 112 23 104 -309 104 -158 0 -291 -3 -294 -7z"/>
<path d="M8402 10128 c-9 -9 -12 -130 -12 -499 0 -430 2 -489 16 -503 23 -24
465 -24 488 0 20 19 23 153 4 172 -8 8 -56 12 -150 12 l-138 0 0 110 0 110
113 0 c75 0 117 4 125 12 7 7 12 42 12 88 0 46 -5 81 -12 88 -8 8 -50 12 -125
12 l-113 0 0 105 0 105 128 0 c165 0 164 -1 160 110 l-3 85 -240 3 c-179 2
-244 -1 -253 -10z"/>
<path d="M9302 6894 c-31 -21 -52 -66 -52 -109 0 -35 -16 -53 -241 -283 l-241
-247 -74 -5 c-64 -5 -78 -10 -105 -35 -17 -17 -35 -40 -39 -51 -14 -34 -15
-1494 -2 -1524 15 -33 32 -53 62 -73 23 -15 96 -17 750 -19 710 -3 726 -2 760
17 21 12 44 39 58 65 l22 45 -2 740 -3 740 -23 33 c-32 45 -71 62 -139 62
l-58 0 -248 248 -247 247 0 49 c0 41 -5 53 -34 82 -28 28 -41 34 -78 34 -24 0
-54 -7 -66 -16z m58 -224 c14 0 37 7 52 14 l27 15 217 -222 216 -222 -497 -3
c-274 -1 -500 0 -503 3 -3 3 44 56 104 117 60 62 156 161 213 220 98 101 105
106 125 93 11 -8 32 -15 46 -15z m-260 -740 c11 -11 20 -27 20 -35 0 -24 -31
-31 -46 -11 -22 30 -48 15 -58 -32 -17 -83 23 -155 58 -106 15 20 46 13 46
-10 0 -37 -58 -64 -103 -47 -70 27 -77 211 -10 250 29 17 71 13 93 -9z m180
-5 c0 -22 -4 -25 -33 -25 -41 0 -45 -4 -39 -35 3 -20 10 -25 34 -25 25 0 29
-4 26 -22 -2 -18 -11 -24 -36 -26 -29 -3 -32 -6 -29 -30 3 -23 9 -27 41 -30
32 -3 37 -6 34 -25 -3 -20 -9 -22 -58 -22 l-55 0 -3 133 -3 132 61 0 c57 0 60
-1 60 -25z m172 -5 c22 -28 23 -87 2 -112 -16 -16 -15 -21 4 -68 l21 -50 -28
0 c-24 0 -31 6 -45 45 -10 25 -22 45 -27 45 -5 0 -9 -20 -9 -45 0 -41 -2 -45
-25 -45 l-25 0 0 131 0 131 57 -4 c43 -4 61 -10 75 -28z m188 3 c11 -14 19
-31 17 -37 -6 -18 -39 -19 -49 -2 -24 43 -58 3 -58 -69 0 -76 24 -103 61 -69
20 18 49 12 49 -10 0 -20 -48 -56 -76 -56 -12 0 -36 11 -51 24 -27 23 -28 28
-28 111 0 83 1 88 28 111 38 32 80 31 107 -3z m186 -103 c26 -105 29 -126 17
-133 -16 -10 -43 8 -43 29 0 9 -12 14 -35 14 -28 0 -35 -4 -35 -20 0 -15 -7
-20 -25 -20 -30 0 -30 1 -4 103 42 170 37 159 67 155 26 -3 28 -9 58 -128z
m-902 105 c8 -23 -4 -45 -25 -45 -11 0 -22 7 -25 15 -9 23 3 45 25 45 10 0 21
-7 25 -15z m-4 -161 c0 -83 -1 -85 -22 -82 -28 4 -32 23 -23 104 6 54 10 64
26 64 17 0 19 -8 19 -86z m221 -273 c27 -27 29 -35 29 -100 0 -95 -22 -122
-103 -129 l-57 -4 0 131 0 131 51 0 c43 0 55 -5 80 -29z m193 20 c13 -21 -7
-41 -40 -41 -30 0 -34 -3 -34 -25 0 -21 5 -25 30 -25 25 0 30 -4 30 -25 0 -21
-5 -25 -30 -25 -27 0 -30 -3 -30 -29 0 -27 3 -30 38 -33 29 -2 37 -7 37 -23 0
-18 -8 -20 -62 -23 l-63 -3 0 131 0 130 59 0 c33 0 62 -4 65 -9z m250 0 c10
-16 -5 -41 -25 -41 -17 0 -19 -8 -19 -67 0 -38 -3 -85 -7 -106 -5 -31 -9 -38
-27 -35 -20 3 -21 10 -24 105 -3 96 -4 102 -25 105 -14 2 -23 11 -25 26 -3 21
0 22 72 22 41 0 77 -4 80 -9z m76 -122 c0 -130 0 -130 -22 -127 -22 3 -23 7
-26 131 l-3 127 26 0 25 0 0 -131z m88 -92 c5 -25 -17 -77 -33 -77 -12 0 -18
75 -8 93 8 14 38 2 41 -16z m-888 -217 c11 -11 20 -25 20 -30 0 -16 -30 -24
-43 -11 -6 6 -19 11 -29 11 -31 0 -21 -37 17 -60 41 -25 55 -48 55 -86 0 -34
-36 -74 -66 -74 -57 0 -98 40 -70 69 14 13 17 13 34 -2 10 -9 26 -17 35 -17
31 0 17 35 -28 73 -37 32 -45 44 -45 72 0 44 29 75 70 75 17 0 39 -9 50 -20z
m105 -115 c0 -123 -1 -130 -20 -130 -19 0 -20 9 -26 120 -3 66 -4 126 -1 133
2 7 14 12 26 10 20 -3 21 -8 21 -133z m173 108 c3 -19 -2 -22 -35 -25 -33 -3
-38 -7 -41 -30 -3 -26 -1 -28 33 -28 32 0 36 -3 33 -22 -2 -18 -11 -24 -35
-26 -29 -3 -33 -7 -33 -33 0 -27 2 -29 41 -29 36 0 40 -2 37 -22 -3 -21 -8
-23 -63 -23 l-60 0 -3 119 c-1 66 0 126 3 133 3 10 21 13 62 11 51 -3 58 -6
61 -25z m115 -47 c10 -31 22 -54 25 -51 4 4 16 32 27 63 17 49 24 57 45 57
l25 0 0 -130 c0 -123 -1 -130 -20 -130 -18 0 -20 8 -23 75 l-3 75 -17 -50
c-13 -37 -22 -50 -36 -50 -14 0 -24 13 -37 50 l-17 50 -3 -75 c-4 -67 -6 -75
-24 -75 -19 0 -20 8 -23 119 -1 66 -1 125 2 132 3 9 14 10 32 5 23 -6 31 -18
47 -65z m297 49 c25 -22 27 -90 5 -122 -9 -12 -31 -25 -50 -29 -31 -6 -34 -9
-37 -48 -2 -33 -7 -41 -23 -41 -19 0 -20 8 -23 119 -1 66 0 126 3 134 8 20 99
11 125 -13z m187 -9 c28 -33 29 -61 5 -101 -18 -29 -18 -31 0 -74 12 -29 15
-48 9 -54 -17 -17 -39 1 -60 48 -24 55 -41 51 -41 -11 0 -41 -2 -45 -22 -42
-22 3 -23 7 -26 122 -1 66 0 126 3 134 4 11 18 13 57 10 40 -4 57 -11 75 -32z
m167 28 c9 -3 16 -14 16 -24 0 -14 -9 -20 -37 -22 -33 -3 -38 -7 -41 -30 -3
-26 -1 -28 33 -28 32 0 36 -3 33 -22 -2 -18 -11 -24 -36 -26 -29 -3 -33 -6
-30 -30 3 -23 8 -27 41 -30 33 -3 38 -6 35 -25 -3 -20 -9 -22 -63 -22 l-60 0
-3 119 c-1 66 0 126 2 133 6 13 81 18 110 7z m100 -22 c0 -12 -1 -51 -2 -87
-2 -58 -4 -65 -22 -65 -18 0 -20 7 -20 83 0 46 3 87 7 91 14 14 38 0 37 -22z
m0 -199 c4 -9 0 -23 -9 -32 -13 -14 -17 -14 -30 0 -19 19 -10 49 15 49 10 0
21 -8 24 -17z"/>
<path d="M9370 5866 c0 -30 4 -36 20 -36 40 0 36 60 -4 68 -12 3 -16 -4 -16
-32z"/>
<path d="M9760 5858 c0 -9 -3 -30 -6 -47 -6 -26 -4 -31 13 -31 18 0 20 4 13
40 -8 42 -20 65 -20 38z"/>
<path d="M9060 5390 c0 -73 2 -80 20 -80 26 0 40 29 40 87 0 52 -12 73 -42 73
-16 0 -18 -10 -18 -80z"/>
<path d="M9470 5009 c0 -36 2 -40 23 -37 42 6 33 77 -10 78 -8 0 -13 -15 -13
-41z"/>
<path d="M9657 5043 c-10 -10 -8 -61 2 -67 13 -9 39 3 45 20 12 31 -26 69 -47
47z"/>
<path d="M2325 6651 c-23 -10 -50 -31 -60 -47 -20 -28 -20 -55 -23 -1054 -2
-1145 -7 -1068 67 -1117 l34 -23 852 0 852 0 34 23 c74 49 69 -25 69 1107 0
1150 6 1063 -80 1108 l-44 22 -831 0 c-784 0 -832 -1 -870 -19z m1720 -104
c13 -19 15 -157 15 -1014 0 -980 0 -993 -20 -1013 -20 -20 -33 -20 -847 -20
-755 0 -828 1 -845 17 -17 15 -18 60 -18 1018 0 957 1 1003 18 1018 17 15 92
17 833 19 448 2 822 1 832 -1 10 -2 24 -13 32 -24z"/>
<path d="M2665 6338 c-13 -35 -51 -208 -47 -213 13 -13 33 -3 42 20 6 15 17
25 30 25 13 0 24 -10 30 -25 9 -24 34 -34 43 -17 2 4 -8 54 -22 112 -23 92
-29 105 -49 108 -12 2 -24 -3 -27 -10z m37 -98 c4 -23 1 -30 -12 -30 -13 0
-16 7 -12 30 2 17 8 30 12 30 4 0 10 -13 12 -30z"/>
<path d="M2797 6344 c-4 -4 -7 -56 -7 -116 l0 -108 50 0 c43 0 50 3 50 20 0
15 -7 20 -30 20 l-29 0 -3 92 c-3 84 -12 111 -31 92z"/>
<path d="M2915 6338 c-3 -8 -4 -59 -3 -114 3 -91 5 -99 23 -99 19 0 20 7 20
110 0 97 -2 110 -18 113 -9 2 -19 -3 -22 -10z"/>
<path d="M2994 6337 c-2 -7 -3 -58 -2 -113 3 -85 5 -99 21 -102 14 -3 17 5 17
53 0 59 14 67 25 15 4 -17 12 -30 19 -30 13 0 35 39 38 68 1 9 4 -10 7 -43 5
-51 9 -60 26 -60 19 0 20 7 20 95 0 110 -6 131 -33 123 -13 -3 -24 -20 -32
-49 -7 -25 -16 -47 -20 -49 -4 -2 -13 15 -20 38 -6 23 -17 48 -22 55 -14 16
-37 15 -44 -1z"/>
<path d="M3204 6337 c-2 -7 -3 -58 -2 -113 l3 -99 50 0 c39 0 50 4 53 17 2 12
-5 17 -30 20 -28 2 -34 7 -36 31 -3 24 0 27 28 27 25 0 31 4 28 18 -2 10 -14
18 -31 20 -23 3 -28 8 -25 25 2 16 10 22 31 23 33 1 41 8 34 29 -8 19 -95 21
-103 2z"/>
<path d="M3334 6337 c-2 -7 -3 -58 -2 -113 3 -91 5 -99 23 -99 18 0 20 6 19
53 -1 28 1 52 5 52 3 0 16 -24 27 -53 15 -36 27 -52 40 -52 17 0 19 9 19 110
0 91 -3 110 -15 110 -11 0 -16 -15 -18 -59 l-3 -59 -29 62 c-28 59 -54 78 -66
48z"/>
<path d="M3494 6336 c-8 -20 3 -36 24 -36 15 0 17 -12 17 -84 0 -89 4 -102 30
-93 12 5 15 24 15 93 0 78 2 86 20 91 13 3 20 12 18 22 -4 23 -116 29 -124 7z"/>
<path d="M3659 6331 c-19 -15 -24 -30 -27 -87 -3 -59 -1 -73 18 -96 29 -37 71
-38 99 -2 16 21 21 41 21 91 0 55 -4 67 -25 88 -29 30 -55 32 -86 6z m59 -33
c17 -17 15 -100 -2 -124 -11 -14 -17 -16 -26 -7 -18 16 -24 96 -11 122 13 24
22 26 39 9z"/>
<path d="M3817 6338 c-9 -7 -19 -26 -23 -41 -5 -24 0 -33 36 -67 27 -25 40
-45 37 -55 -7 -17 -23 -20 -32 -5 -9 15 -45 12 -45 -3 0 -21 34 -47 62 -47 68
0 81 96 18 133 -17 10 -30 27 -30 38 0 21 20 25 37 8 13 -13 33 -4 33 16 0 30
-63 45 -93 23z"/>
<path d="M2456 6265 c-19 -19 -20 -29 -6 -56 16 -28 68 -26 79 4 18 46 -38 86
-73 52z"/>
<path d="M2637 5873 c-4 -3 -7 -55 -7 -115 l0 -108 43 0 c57 0 87 22 87 64 0
17 -5 37 -10 42 -7 7 -7 19 -2 35 12 30 0 64 -27 78 -22 12 -74 15 -84 4z m71
-61 c3 -17 -2 -22 -17 -22 -14 0 -21 6 -21 18 0 38 33 41 38 4z m10 -88 c2
-13 -4 -24 -13 -28 -24 -9 -35 1 -35 30 0 21 4 25 23 22 13 -2 23 -11 25 -24z"/>
<path d="M2795 5867 c-3 -7 -4 -58 -3 -113 l3 -99 53 -3 c46 -3 52 -1 52 17 0
15 -8 20 -32 23 -28 2 -33 7 -33 28 0 20 6 26 28 28 38 5 33 36 -6 40 -23 3
-28 8 -25 25 2 17 11 23 36 25 25 3 32 8 30 20 -4 22 -95 30 -103 9z"/>
<path d="M2937 5873 c-4 -3 -7 -55 -7 -115 l0 -108 45 0 c73 0 118 58 79 101
-12 14 -13 21 -3 37 17 28 3 71 -27 82 -29 11 -78 13 -87 3z m71 -60 c4 -24
-26 -40 -34 -18 -8 21 3 47 19 43 6 -3 13 -14 15 -25z m7 -93 c0 -16 -6 -26
-18 -28 -19 -4 -32 20 -23 44 9 25 41 13 41 -16z"/>
<path d="M3095 5868 c-3 -8 -4 -59 -3 -114 3 -91 5 -99 23 -99 19 0 20 7 20
110 0 97 -2 110 -18 113 -9 2 -19 -3 -22 -10z"/>
<path d="M3174 5867 c-2 -7 -3 -58 -2 -113 l3 -99 38 -3 c49 -4 84 18 95 61
11 38 6 93 -10 124 -18 36 -113 59 -124 30z m80 -43 c32 -32 13 -134 -25 -134
-5 0 -9 34 -9 75 0 76 6 87 34 59z"/>
<path d="M3376 5863 c-24 -80 -46 -172 -46 -190 0 -31 28 -30 40 2 7 17 17 25
34 25 17 0 26 -7 30 -25 4 -16 13 -25 26 -25 11 0 20 2 20 4 0 14 -42 185 -50
204 -11 26 -46 29 -54 5z m37 -90 c5 -25 3 -33 -8 -33 -16 0 -20 26 -9 55 8
20 10 18 17 -22z"/>
<path d="M3522 5864 c-31 -22 -29 -68 4 -99 15 -14 30 -25 34 -25 13 0 21 -33
11 -43 -7 -7 -19 -6 -36 3 -36 19 -56 -1 -30 -30 23 -25 76 -26 98 -2 30 33
21 70 -25 113 -33 30 -40 41 -31 50 9 9 15 9 26 0 15 -12 47 -5 47 10 0 12
-42 39 -60 39 -9 0 -26 -7 -38 -16z"/>
<path d="M2448 5784 c-16 -34 0 -59 37 -59 35 0 57 31 44 63 -13 33 -65 31
-81 -4z"/>
<path d="M2630 5289 l0 -110 53 3 c38 2 52 7 52 18 0 9 -12 17 -30 20 l-30 5
-3 88 c-3 79 -5 87 -22 87 -19 0 -20 -7 -20 -111z"/>
<path d="M2760 5290 c0 -103 1 -110 20 -110 19 0 20 7 20 110 0 103 -1 110
-20 110 -19 0 -20 -7 -20 -110z"/>
<path d="M2840 5290 c0 -103 1 -110 20 -110 18 0 20 7 21 63 l1 62 15 -42 c8
-24 21 -43 28 -43 7 0 20 19 28 43 l15 42 1 -62 c1 -56 3 -63 21 -63 19 0 20
7 20 110 l0 110 -25 0 c-14 0 -25 -6 -25 -12 0 -7 -9 -31 -19 -53 l-18 -40
-17 53 c-15 44 -22 52 -42 52 -24 0 -24 0 -24 -110z"/>
<path d="M3050 5290 c0 -102 1 -110 19 -110 16 0 20 8 23 38 3 32 7 37 30 40
51 6 75 73 42 120 -12 18 -25 22 -65 22 l-49 0 0 -110z m80 40 c0 -23 -4 -30
-20 -30 -16 0 -20 7 -20 30 0 23 4 30 20 30 16 0 20 -7 20 -30z"/>
<path d="M3204 5387 c-3 -8 -3 -56 -2 -108 3 -89 4 -94 26 -97 22 -3 22 -2 22
107 0 105 -1 111 -20 111 -11 0 -23 -6 -26 -13z"/>
<path d="M3282 5293 l3 -108 53 -3 c47 -3 52 -1 52 17 0 17 -6 21 -30 21 -25
0 -30 4 -30 25 0 20 5 25 25 25 18 0 25 5 25 20 0 15 -7 20 -25 20 -20 0 -25
5 -25 25 0 21 5 25 30 25 23 0 30 4 30 20 0 18 -7 20 -55 20 l-56 0 3 -107z"/>
<path d="M3415 5390 c-11 -17 5 -30 36 -30 16 0 29 -2 29 -5 0 -3 -16 -37 -35
-75 -49 -97 -48 -100 30 -100 58 0 65 2 65 20 0 16 -7 20 -35 20 -19 0 -35 2
-35 4 0 2 16 38 35 80 20 42 33 81 30 86 -8 13 -112 13 -120 0z"/>
<path d="M3607 5393 c-7 -11 -47 -182 -47 -199 0 -8 9 -14 20 -14 13 0 20 7
20 20 0 29 55 28 63 -1 4 -14 12 -19 24 -17 10 2 17 8 17 14 -1 5 -12 53 -24
107 -20 89 -24 97 -45 97 -13 0 -26 -3 -28 -7z m36 -125 c-2 -5 -8 -8 -14 -8
-11 0 -12 53 -1 64 7 8 21 -44 15 -56z"/>
<path d="M2457 5322 c-22 -25 -21 -45 3 -67 29 -26 70 -7 70 33 0 50 -41 69
-73 34z"/>
<path d="M2645 4915 c-35 -34 -31 -53 19 -100 32 -29 42 -45 36 -55 -7 -12
-12 -12 -35 0 -36 19 -57 -1 -30 -30 25 -28 79 -27 99 2 30 43 17 76 -48 122
-27 19 -15 51 14 36 23 -12 40 -6 40 16 0 13 -37 34 -61 34 -5 0 -21 -11 -34
-25z"/>
<path d="M3138 4921 c-44 -35 -48 -146 -7 -190 11 -12 32 -21 48 -21 27 0 61
26 61 47 0 18 -28 23 -40 7 -32 -37 -54 -2 -48 77 2 37 7 45 26 47 12 2 22 -1
22 -7 0 -6 9 -11 20 -11 40 0 14 54 -30 65 -18 4 -34 0 -52 -14z"/>
<path d="M3445 4915 c-34 -33 -31 -52 15 -96 22 -21 40 -45 40 -54 0 -17 -35
-21 -45 -5 -11 17 -35 11 -35 -10 0 -39 74 -54 103 -22 30 33 22 76 -20 109
-25 21 -34 35 -30 47 6 14 10 14 27 4 16 -10 22 -10 32 0 11 11 9 17 -11 33
-31 25 -47 24 -76 -6z"/>
<path d="M2775 4823 c0 -101 1 -108 20 -108 17 0 20 7 20 53 0 28 3 52 6 52 3
0 16 -24 30 -52 17 -38 30 -53 44 -53 25 0 29 24 20 132 -6 74 -9 83 -27 83
-17 0 -19 -6 -18 -47 3 -72 2 -72 -27 -10 -20 43 -31 57 -47 57 -20 0 -21 -5
-21 -107z"/>
<path d="M2985 4918 c-11 -31 -45 -178 -45 -192 0 -23 37 -20 43 4 3 13 14 20
30 20 17 0 28 -7 32 -20 7 -21 45 -28 45 -9 0 10 -12 62 -41 172 -8 30 -14 37
-35 37 -13 0 -27 -6 -29 -12z m40 -126 c-12 -12 -23 15 -17 43 l6 30 8 -34 c5
-18 7 -36 3 -39z"/>
<path d="M3270 4820 c0 -103 1 -110 20 -110 17 0 20 7 20 40 0 47 13 52 30 10
15 -37 35 -54 55 -46 13 5 11 15 -14 64 l-30 59 24 39 c30 48 30 54 5 54 -13
0 -29 -14 -43 -37 l-22 -38 -3 38 c-3 29 -7 37 -23 37 -18 0 -19 -8 -19 -110z"/>
<path d="M2457 4852 c-23 -25 -21 -48 4 -66 26 -18 59 -8 70 21 9 25 -15 63
-40 63 -10 0 -25 -8 -34 -18z"/>
<path d="M5740 6281 c-6 -12 -7 -21 -1 -21 10 0 24 30 17 37 -2 3 -9 -5 -16
-16z"/>
<path d="M6400 6160 c0 -5 7 -7 15 -4 8 4 15 8 15 10 0 2 -7 4 -15 4 -8 0 -15
-4 -15 -10z"/>
<path d="M6390 5620 c0 -5 14 -10 32 -10 36 0 35 4 -4 14 -17 4 -28 2 -28 -4z"/>
<path d="M5375 5969 c-6 -19 7 -38 26 -39 17 0 42 29 36 44 -9 24 -54 21 -62
-5z"/>
<path d="M7319 5757 c-31 -16 -37 -52 -10 -67 16 -8 28 -7 53 6 29 15 34 15
65 0 25 -12 39 -13 53 -6 25 13 35 47 19 66 -13 15 -26 15 -98 0 -13 -3 -31
-1 -40 4 -11 5 -26 4 -42 -3z"/>
<path d="M5069 3552 c-41 -2 -62 -8 -74 -22 -17 -18 -17 -21 -1 -45 14 -22 20
-24 32 -14 11 9 59 13 154 13 108 0 141 3 145 14 9 23 -14 52 -43 53 -57 4
-159 4 -213 1z"/>
<path d="M5254 3430 c-40 -21 -71 -28 -138 -33 -83 -6 -87 -5 -96 16 -7 17 -9
18 -9 5 -1 -10 -4 -18 -7 -18 -4 0 -13 8 -20 18 -12 15 -14 11 -12 -33 3 -48
5 -51 48 -75 38 -21 58 -25 125 -25 120 0 195 47 195 120 0 28 -16 57 -29 54
-4 -1 -29 -13 -57 -29z"/>
<path d="M5368 3453 c-14 -4 -18 -15 -18 -56 1 -42 3 -49 11 -33 9 15 13 16
20 5 6 -9 9 5 9 39 0 28 -1 51 -2 51 -2 -1 -11 -3 -20 -6z"/>
<path d="M5561 3599 c0 -14 -3 -55 -6 -90 -5 -64 -5 -64 9 -28 10 26 12 52 6
90 -4 30 -8 42 -9 28z"/>
<path d="M9320 3477 l0 -64 208 -5 c114 -3 238 -5 276 -4 l69 1 12 42 c7 23
15 53 19 67 l6 26 -295 0 -295 0 0 -63z"/>
<path d="M9327 3323 c-2 -5 -3 -33 -3 -63 l1 -55 244 0 245 0 17 57 c9 31 14
59 11 63 -8 8 -510 6 -515 -2z"/>
<path d="M9337 2982 c-20 -22 -13 -52 13 -52 26 0 46 28 34 48 -15 24 -28 25
-47 4z"/>
<path d="M9712 2978 c-16 -16 -15 -33 2 -47 28 -23 68 17 45 45 -14 17 -31 18
-47 2z"/>
<path d="M6338 3499 c-24 -13 -23 -36 1 -49 31 -16 66 -12 86 10 18 20 18 21
-1 35 -22 17 -62 19 -86 4z"/>
<path d="M8911 2539 c-14 -40 -14 -39 4 -39 10 0 15 11 15 35 0 43 -5 44 -19
4z"/>
<path d="M9057 2593 c-4 -3 -7 -15 -7 -25 0 -28 34 -19 38 10 3 21 -16 31 -31
15z"/>
<path d="M9047 2503 c-13 -12 -7 -53 7 -53 20 0 39 27 32 45 -6 15 -28 20 -39
8z"/>
<path d="M9203 2533 c-8 -22 -8 -35 -2 -39 17 -10 26 9 19 41 l-6 30 -11 -32z"/>
<path d="M9357 2594 c-11 -11 -8 -64 3 -64 5 0 14 10 21 21 8 17 8 24 -3 35
-8 8 -17 11 -21 8z"/>
<path d="M9497 2584 c-4 -4 -7 -18 -7 -31 0 -18 5 -24 18 -21 10 2 17 12 17
27 0 24 -15 37 -28 25z"/>
<path d="M9642 2573 c-13 -26 -23 -98 -16 -117 9 -22 31 -20 44 4 14 26 9 122
-7 127 -6 2 -16 -4 -21 -14z"/>
</g>
</svg>
